<svg width="50" height="48" viewBox="0 0 50 48" fill="none" xmlns="http://www.w3.org/2000/svg">
<path d="M8.85417 3.86887e-06H41.1458C42.3089 -0.00107545 43.4607 0.223684 44.5355 0.66142C45.6102 1.09916 46.5867 1.74127 47.4091 2.55102C48.2315 3.36078 48.8837 4.32226 49.3283 5.38046C49.7728 6.43866 50.0011 7.57279 50 8.71795V39.2821C50.0011 40.4272 49.7728 41.5613 49.3283 42.6195C48.8837 43.6777 48.2315 44.6392 47.4091 45.449C46.5867 46.2587 45.6102 46.9008 44.5355 47.3386C43.4607 47.7763 42.3089 48.0011 41.1458 48H8.85417C7.69112 48.0011 6.53926 47.7763 5.46453 47.3386C4.3898 46.9008 3.41329 46.2587 2.59088 45.449C1.76848 44.6392 1.11633 43.6777 0.671755 42.6195C0.227179 41.5613 -0.00109226 40.4272 3.92932e-06 39.2821V8.71795C-0.00109226 7.57279 0.227179 6.43866 0.671755 5.38046C1.11633 4.32226 1.76848 3.36078 2.59088 2.55102C3.41329 1.74127 4.3898 1.09916 5.46453 0.66142C6.53926 0.223684 7.69112 -0.00107545 8.85417 3.86887e-06Z" fill="#CCC48D"/>
<path fill-rule="evenodd" clip-rule="evenodd" d="M13.8219 9C11.6731 9 10.0833 10.8809 10.1544 12.9205C10.2227 14.8799 10.134 17.418 9.49502 19.4875C8.85403 21.5634 7.77033 22.8783 6 23.0469V24.9531C7.77033 25.1217 8.85403 26.4366 9.49502 28.5125C10.134 30.582 10.2227 33.1201 10.1544 35.0795C10.0833 37.1191 11.6731 39 13.8219 39H35.8404C37.9892 39 39.5789 37.1191 39.5079 35.0795C39.4396 33.1201 39.5283 30.582 40.1673 28.5125C40.8083 26.4366 41.8892 25.1217 43.6596 24.9531V23.0469C41.8892 22.8783 40.8083 21.5634 40.1673 19.4875C39.5283 17.418 39.4396 14.8799 39.5079 12.9205C39.5789 10.8809 37.9892 9 35.8404 9H13.8219ZM32.548 28.3901C32.548 31.7045 30.076 33.7141 25.9739 33.7141H20.2374C19.1328 33.7141 18.2374 32.8187 18.2374 31.7141L18.2374 16.8843C18.2374 15.7797 19.1328 14.8843 20.2374 14.8843L25.9338 14.8843C29.3545 14.8843 31.5993 16.7373 31.5993 19.582C31.5993 21.5785 30.0894 23.3662 28.1653 23.6794V23.7838C30.7842 24.0708 32.548 25.8847 32.548 28.3901ZM25.2123 17.2723L21.2304 17.2723V22.8964H24.5843C27.1765 22.8964 28.6062 21.8525 28.6062 19.9865C28.6062 18.2379 27.3769 17.2723 25.2123 17.2723ZM21.2304 25.1278L21.2304 31.3261H25.3593C28.0584 31.3261 29.4881 30.243 29.4881 28.2074C29.4881 26.1717 28.0183 25.1278 25.1856 25.1278L21.2304 25.1278Z" fill="#283618"/>
</svg>
