<svg width="50" height="48" viewBox="0 0 50 48" fill="none" xmlns="http://www.w3.org/2000/svg">
<path d="M8.85417 3.86887e-06H41.1458C42.3089 -0.00107545 43.4607 0.223684 44.5355 0.66142C45.6102 1.09916 46.5867 1.74127 47.4091 2.55102C48.2315 3.36078 48.8837 4.32226 49.3283 5.38046C49.7728 6.43866 50.0011 7.57279 50 8.71795V39.2821C50.0011 40.4272 49.7728 41.5613 49.3283 42.6195C48.8837 43.6777 48.2315 44.6392 47.4091 45.449C46.5867 46.2587 45.6102 46.9008 44.5355 47.3386C43.4607 47.7763 42.3089 48.0011 41.1458 48H8.85417C7.69112 48.0011 6.53926 47.7763 5.46453 47.3386C4.3898 46.9008 3.41329 46.2587 2.59088 45.449C1.76848 44.6392 1.11633 43.6777 0.671755 42.6195C0.227179 41.5613 -0.00109226 40.4272 3.92932e-06 39.2821V8.71795C-0.00109226 7.57279 0.227179 6.43866 0.671755 5.38046C1.11633 4.32226 1.76848 3.36078 2.59088 2.55102C3.41329 1.74127 4.3898 1.09916 5.46453 0.66142C6.53926 0.223684 7.69112 -0.00107545 8.85417 3.86887e-06Z" fill="#CCC48D"/>
<mask id="mask0_707_380" style="mask-type:luminance" maskUnits="userSpaceOnUse" x="10" y="9" width="30" height="33">
<path d="M10 9H39.1032V42H10V9Z" fill="white"/>
</mask>
<g mask="url(#mask0_707_380)">
<path d="M24.5362 41.9984L12.6601 38.7001L10.0137 9.00143L39.0942 9.00098L36.446 38.6951L24.5367 41.9979L24.5362 41.9984Z" fill="#283618"/>
</g>
<path d="M33.9051 36.3358L36 11.0003L25 11V39L33.9051 36.3354V36.3358Z" fill="#4A6130"/>
<path d="M16 22L16.3465 26H25V22H16Z" fill="#EBEBEB"/>
<path d="M15 15L15.3625 19H25V15H15Z" fill="#EBEBEB"/>
<path d="M25 32.1036L24.9841 32.1083L20.9216 30.9829L20.6618 28H17L17.5111 33.8732L24.9829 36L25 35.9953V32.1036Z" fill="#EBEBEB"/>
<path d="M33.352 22.5075L34 15H25V18.7091H30.0625L29.7363 22.5075H25V26.2153H29.4246L29.0073 31.0253L25 32.1423V36L32.3654 33.8935L32.4194 33.2664L33.2642 23.5026L33.352 22.5075Z" fill="white"/>
</svg>
