<svg width="50" height="48" viewBox="0 0 50 48" fill="none" xmlns="http://www.w3.org/2000/svg">
<path d="M8.85417 3.86887e-06H41.1458C42.3089 -0.00107545 43.4607 0.223684 44.5355 0.66142C45.6102 1.09916 46.5867 1.74127 47.4091 2.55102C48.2315 3.36078 48.8837 4.32226 49.3283 5.38046C49.7728 6.43866 50.0011 7.57279 50 8.71795V39.2821C50.0011 40.4272 49.7728 41.5613 49.3283 42.6195C48.8837 43.6777 48.2315 44.6392 47.4091 45.449C46.5867 46.2587 45.6102 46.9008 44.5355 47.3386C43.4607 47.7763 42.3089 48.0011 41.1458 48H8.85417C7.69112 48.0011 6.53926 47.7763 5.46453 47.3386C4.3898 46.9008 3.41329 46.2587 2.59088 45.449C1.76848 44.6392 1.11633 43.6777 0.671755 42.6195C0.227179 41.5613 -0.00109226 40.4272 3.92932e-06 39.2821V8.71795C-0.00109226 7.57279 0.227179 6.43866 0.671755 5.38046C1.11633 4.32226 1.76848 3.36078 2.59088 2.55102C3.41329 1.74127 4.3898 1.09916 5.46453 0.66142C6.53926 0.223684 7.69112 -0.00107545 8.85417 3.86887e-06Z" fill="#CCC48D"/>
<path d="M24.4954 5C25.1965 7.65325 27.4666 10.0214 29.9198 12.4784L30.44 12.9986C34.3168 16.8725 38.6557 21.2734 38.6557 27.8401C38.6557 32.899 35.9569 37.5735 31.5758 40.1029C27.1947 42.6324 21.797 42.6324 17.4159 40.1029C13.0348 37.5735 10.3359 32.899 10.3359 27.8401C10.3359 21.4056 14.5016 17.0511 18.3155 13.234L18.5509 12.9986L18.6682 12.8813C21.2715 10.2789 23.7561 7.79798 24.4954 5ZM24.4952 26.2382C24.4952 26.2382 23.6061 27.205 22.675 28.2391L22.5449 28.3837C21.8721 29.1323 21.1979 29.8941 20.8397 30.3321C20.0731 31.2304 19.6439 32.368 19.6259 33.5488C19.6259 34.8404 20.139 36.0791 21.0523 36.9924C21.9656 37.9057 23.2043 38.4188 24.4959 38.4188C27.1855 38.4188 29.3658 36.2384 29.3658 33.5488C29.3763 32.3583 28.9404 31.207 28.1441 30.3218C27.7833 29.9195 27.1388 29.1985 26.4907 28.4731L26.3612 28.3281C25.4119 27.2654 24.4952 26.2382 24.4952 26.2382ZM24.4953 13.1465C24.4953 13.1465 24.4948 13.1471 24.4936 13.1482L24.454 13.1878C24.4217 13.2201 24.3716 13.2702 24.3072 13.3345L23.9329 13.7087C23.8171 13.8244 23.6891 13.9523 23.5547 14.0867L22.8949 14.7464C22.7742 14.8671 22.6553 14.986 22.5418 15.0995L22.2712 15.3702C22.2542 15.3872 22.2374 15.404 22.2209 15.4206L21.9536 15.6881C21.9277 15.7141 21.9031 15.7386 21.8801 15.7617L21.8552 15.7866C21.3135 16.3259 20.2221 17.3334 21.5362 18.7534C22.219 19.4912 24.2372 21.6138 26.3354 23.8509L26.6155 24.1497C29.0922 26.7934 31.6024 29.5176 32.0951 30.2466C32.5185 30.8732 32.5797 31.1668 33.1525 31.1459C33.4739 31.1342 33.712 30.751 33.8169 30.5214C34.3086 29.4462 35.1424 26.188 32.723 22.4226C31.0535 19.8245 27.7707 16.3954 25.8959 14.5191L25.7364 14.3599C24.9838 13.6099 24.4953 13.1465 24.4953 13.1465ZM18.2263 19.7065C12.2818 25.5871 15.4861 31.1101 16.3543 31.1396C16.4443 31.1427 16.5942 31.1535 16.6969 30.8672C17.1942 29.4799 21.195 25.4678 22.1337 24.5051C22.2087 24.4452 22.2544 24.356 22.2594 24.2601C22.2644 24.1643 22.2282 24.0708 22.16 24.0034L18.2263 19.7065Z" fill="#283618"/>
</svg>
