<svg width="50" height="48" viewBox="0 0 50 48" fill="none" xmlns="http://www.w3.org/2000/svg">
<g clip-path="url(#clip0_703_255)">
<path d="M8.85417 3.86887e-06H41.1458C42.3089 -0.00107545 43.4607 0.223684 44.5355 0.66142C45.6102 1.09916 46.5867 1.74127 47.4091 2.55102C48.2315 3.36078 48.8837 4.32226 49.3283 5.38046C49.7728 6.43866 50.0011 7.57279 50 8.71795V39.2821C50.0011 40.4272 49.7728 41.5613 49.3283 42.6195C48.8837 43.6777 48.2315 44.6392 47.4091 45.449C46.5867 46.2587 45.6102 46.9008 44.5355 47.3386C43.4607 47.7763 42.3089 48.0011 41.1458 48H8.85417C7.69112 48.0011 6.53926 47.7763 5.46453 47.3386C4.3898 46.9008 3.41329 46.2587 2.59088 45.449C1.76848 44.6392 1.11633 43.6777 0.671755 42.6195C0.227179 41.5613 -0.00109226 40.4272 3.92932e-06 39.2821V8.71795C-0.00109226 7.57279 0.227179 6.43866 0.671755 5.38046C1.11633 4.32226 1.76848 3.36078 2.59088 2.55102C3.41329 1.74127 4.3898 1.09916 5.46453 0.66142C6.53926 0.223684 7.69112 -0.00107545 8.85417 3.86887e-06Z" fill="#CCC48D"/>
<path d="M19.7918 39.3846C22.6683 39.3846 25.0002 37.0886 25.0002 34.2564V29.1282H19.7918C16.9153 29.1282 14.5835 31.4241 14.5835 34.2564C14.5835 37.0886 16.9153 39.3846 19.7918 39.3846Z" fill="#283618"/>
<path d="M14.5835 24C14.5835 21.1678 16.9153 18.8718 19.7918 18.8718H25.0002V29.1282H19.7918C16.9153 29.1282 14.5835 26.8323 14.5835 24Z" fill="#283618"/>
<path d="M14.5835 13.7436C14.5835 10.9113 16.9153 8.61536 19.7918 8.61536H25.0002V18.8718H19.7918C16.9153 18.8718 14.5835 16.5758 14.5835 13.7436Z" fill="#283618"/>
<path d="M25 8.61536H30.2083C33.0848 8.61536 35.4167 10.9113 35.4167 13.7436C35.4167 16.5758 33.0848 18.8718 30.2083 18.8718H25V8.61536Z" fill="#283618"/>
<path d="M35.4167 24C35.4167 26.8323 33.0848 29.1282 30.2083 29.1282C27.3318 29.1282 25 26.8323 25 24C25 21.1678 27.3318 18.8718 30.2083 18.8718C33.0848 18.8718 35.4167 21.1678 35.4167 24Z" fill="#283618"/>
</g>
<defs>
<clipPath id="clip0_703_255">
<rect width="50" height="48" fill="white"/>
</clipPath>
</defs>
</svg>
