<svg width="50" height="48" viewBox="0 0 50 48" fill="none" xmlns="http://www.w3.org/2000/svg">
<path d="M8.85417 3.86887e-06H41.1458C42.3089 -0.00107545 43.4607 0.223684 44.5355 0.66142C45.6102 1.09916 46.5867 1.74127 47.4091 2.55102C48.2315 3.36078 48.8837 4.32226 49.3283 5.38046C49.7728 6.43866 50.0011 7.57279 50 8.71795V39.2821C50.0011 40.4272 49.7728 41.5613 49.3283 42.6195C48.8837 43.6777 48.2315 44.6392 47.4091 45.449C46.5867 46.2587 45.6102 46.9008 44.5355 47.3386C43.4607 47.7763 42.3089 48.0011 41.1458 48H8.85417C7.69112 48.0011 6.53926 47.7763 5.46453 47.3386C4.3898 46.9008 3.41329 46.2587 2.59088 45.449C1.76848 44.6392 1.11633 43.6777 0.671755 42.6195C0.227179 41.5613 -0.00109226 40.4272 3.92932e-06 39.2821V8.71795C-0.00109226 7.57279 0.227179 6.43866 0.671755 5.38046C1.11633 4.32226 1.76848 3.36078 2.59088 2.55102C3.41329 1.74127 4.3898 1.09916 5.46453 0.66142C6.53926 0.223684 7.69112 -0.00107545 8.85417 3.86887e-06Z" fill="#CCC48D"/>
<path fill-rule="evenodd" clip-rule="evenodd" d="M41.3399 22.9408L26.0583 7.66015C25.1789 6.77995 23.7515 6.77995 22.8709 7.66015L19.6977 10.8334L23.7231 14.8589C24.6586 14.5428 25.7311 14.7548 26.4769 15.5006C27.2261 16.251 27.4366 17.3328 27.1129 18.2714L30.9923 22.1509C31.9308 21.8275 33.0138 22.0368 33.7634 22.7876C34.811 23.8349 34.811 25.5323 33.7634 26.5803C32.7154 27.6283 31.018 27.6283 29.9696 26.5803C29.1816 25.7915 28.9869 24.634 29.3859 23.6632L25.768 20.0452L25.7676 29.5662C26.023 29.6929 26.2642 29.8615 26.4769 30.0735C27.5245 31.1207 27.5245 32.8182 26.4769 33.8669C25.4289 34.9146 23.7307 34.9146 22.6843 33.8669C21.6367 32.8182 21.6367 31.1207 22.6843 30.0735C22.9431 29.815 23.2427 29.6195 23.5622 29.4882V19.8785C23.2427 19.748 22.9435 19.5537 22.6843 19.2933C21.8905 18.5006 21.6996 17.3359 22.1063 16.3612L18.1386 12.3926L7.66043 22.8702C6.77986 23.7511 6.77986 25.1786 7.66043 26.0588L22.942 41.3398C23.8218 42.2201 25.2488 42.2201 26.1298 41.3398L41.3399 26.1298C42.22 25.2492 42.22 23.821 41.3399 22.9408Z" fill="#283618"/>
</svg>
