<svg width="50" height="48" viewBox="0 0 50 48" fill="none" xmlns="http://www.w3.org/2000/svg">
<path d="M8.85417 3.86887e-06H41.1458C42.3089 -0.00107545 43.4607 0.223684 44.5355 0.66142C45.6102 1.09916 46.5867 1.74127 47.4091 2.55102C48.2315 3.36078 48.8837 4.32226 49.3283 5.38046C49.7728 6.43866 50.0011 7.57279 50 8.71795V39.2821C50.0011 40.4272 49.7728 41.5613 49.3283 42.6195C48.8837 43.6777 48.2315 44.6392 47.4091 45.449C46.5867 46.2587 45.6102 46.9008 44.5355 47.3386C43.4607 47.7763 42.3089 48.0011 41.1458 48H8.85417C7.69112 48.0011 6.53926 47.7763 5.46453 47.3386C4.3898 46.9008 3.41329 46.2587 2.59088 45.449C1.76848 44.6392 1.11633 43.6777 0.671755 42.6195C0.227179 41.5613 -0.00109226 40.4272 3.92932e-06 39.2821V8.71795C-0.00109226 7.57279 0.227179 6.43866 0.671755 5.38046C1.11633 4.32226 1.76848 3.36078 2.59088 2.55102C3.41329 1.74127 4.3898 1.09916 5.46453 0.66142C6.53926 0.223684 7.69112 -0.00107545 8.85417 3.86887e-06Z" fill="#CCC48D"/>
<mask id="mask0_707_381" style="mask-type:luminance" maskUnits="userSpaceOnUse" x="10" y="9" width="30" height="34">
<path d="M10 9H39.9961V43H10V9Z" fill="white"/>
</mask>
<g mask="url(#mask0_707_381)">
<path d="M39.988 9.02304L37.2573 39.5971L24.9826 42.9979L12.7418 39.6019L10.0142 9.02304L39.9874 9.02258H39.9886L39.988 9.02304Z" fill="#283618"/>
</g>
<path d="M25 40L34.7146 37.3354L37 12.0003L25 12V40Z" fill="#4A6130"/>
<path d="M19.9225 18.9685H25V15H16L16.0858 16.0648L16.968 27H25V23.0327H20.2505L19.9225 18.9685Z" fill="#EBEBEB"/>
<path d="M20.6618 28H17L17.511 34.6073L24.9828 37L25 36.9948V32.6166L24.9841 32.6219L20.9215 31.3557L20.6618 28Z" fill="#EBEBEB"/>
<path d="M25 26.8473H29.7679L29.3181 31.8381L25 32.9972V37L32.9367 34.8142L32.995 34.1636L33.9054 24.0326L34 23H25V26.8473Z" fill="white"/>
<path d="M25 18.9899V19H33.6782L33.7502 18.1008L33.9144 16.0733L34 15H25V18.9899Z" fill="white"/>
</svg>
