<svg width="50" height="48" viewBox="0 0 50 48" fill="none" xmlns="http://www.w3.org/2000/svg">
<path d="M8.85417 3.86887e-06H41.1458C42.3089 -0.00107545 43.4607 0.223684 44.5355 0.66142C45.6102 1.09916 46.5867 1.74127 47.4091 2.55102C48.2315 3.36078 48.8837 4.32226 49.3283 5.38046C49.7728 6.43866 50.0011 7.57279 50 8.71795V39.2821C50.0011 40.4272 49.7728 41.5613 49.3283 42.6195C48.8837 43.6777 48.2315 44.6392 47.4091 45.449C46.5867 46.2587 45.6102 46.9009 44.5355 47.3386C43.4607 47.7763 42.3089 48.0011 41.1458 48H8.85417C7.69112 48.0011 6.53926 47.7763 5.46453 47.3386C4.3898 46.9009 3.41329 46.2587 2.59088 45.449C1.76848 44.6392 1.11633 43.6777 0.671755 42.6195C0.227179 41.5613 -0.00109226 40.4272 3.92932e-06 39.2821V8.71795C-0.00109226 7.57279 0.227179 6.43866 0.671755 5.38046C1.11633 4.32226 1.76848 3.36078 2.59088 2.55102C3.41329 1.74127 4.3898 1.09916 5.46453 0.66142C6.53926 0.223684 7.69112 -0.00107545 8.85417 3.86887e-06V3.86887e-06Z" fill="#CCC48D"/>
<circle cx="25" cy="24" r="16" fill="#283618"/>
<circle cx="25" cy="24" r="16" stroke="black"/>
<path d="M30.418 20.3822V17.8525C30.7528 17.6959 31.0364 17.4476 31.2357 17.1364C31.4351 16.8252 31.5421 16.4638 31.5443 16.0942V16.0347C31.5429 15.518 31.3371 15.0229 30.9718 14.6575C30.6066 14.2921 30.1116 14.0861 29.5949 14.0845H29.5354C29.0189 14.0861 28.524 14.292 28.1588 14.6572C27.7936 15.0224 27.5877 15.5173 27.586 16.0338V16.0934C27.5877 16.4608 27.693 16.8203 27.8898 17.1306C28.0867 17.4408 28.3672 17.6892 28.6989 17.8471L28.7105 17.8525V20.3876C27.7432 20.5354 26.8325 20.9372 26.0714 21.552L26.082 21.5431L19.1238 16.1254C19.2563 15.629 19.2125 15.1022 19 14.6345C18.7874 14.1669 18.4192 13.7874 17.9582 13.5609C17.4972 13.3343 16.9718 13.2747 16.4718 13.3922C15.9717 13.5097 15.5278 13.7969 15.2159 14.2051C14.904 14.6132 14.7432 15.1168 14.7611 15.6302C14.779 16.1436 14.9744 16.6349 15.314 17.0203C15.6536 17.4057 16.1163 17.6614 16.6234 17.7438C17.1304 17.8261 17.6503 17.7301 18.0945 17.472L18.0838 17.4774L24.9256 22.8027C24.3208 23.7095 23.9996 24.7758 24.0029 25.8658C24.0014 27.0145 24.3578 28.1352 25.0225 29.072L25.0109 29.0543L22.9291 31.1369C22.7625 31.0831 22.5887 31.0547 22.4136 31.0525H22.4118C22.0544 31.0525 21.705 31.1585 21.4078 31.357C21.1106 31.5556 20.879 31.8378 20.7422 32.168C20.6055 32.4983 20.5697 32.8616 20.6394 33.2121C20.7091 33.5627 20.8813 33.8847 21.134 34.1374C21.3867 34.3901 21.7087 34.5623 22.0593 34.632C22.4098 34.7017 22.7731 34.6659 23.1034 34.5292C23.4336 34.3924 23.7158 34.1608 23.9144 33.8636C24.1129 33.5664 24.2189 33.217 24.2189 32.8596C24.2165 32.6798 24.1865 32.5014 24.13 32.3307L24.1345 32.3432L26.194 30.2836C26.8653 30.7958 27.6446 31.1482 28.4726 31.3139C29.3005 31.4797 30.1554 31.4544 30.9721 31.2401C31.7889 31.0257 32.546 30.6279 33.1858 30.0769C33.8257 29.5259 34.3315 28.8363 34.6647 28.0604C34.9979 27.2846 35.1498 26.4429 35.1088 25.5995C35.0679 24.7561 34.8351 23.9332 34.4282 23.1933C34.0213 22.4534 33.451 21.816 32.7607 21.3297C32.0705 20.8434 31.2784 20.5208 30.4447 20.3867L30.4127 20.3822H30.418ZM29.5611 28.7183C28.9979 28.7167 28.4477 28.5482 27.9802 28.2342C27.5126 27.9201 27.1486 27.4745 26.9341 26.9537C26.7196 26.4329 26.6642 25.8602 26.775 25.3079C26.8858 24.7557 27.1578 24.2487 27.5566 23.8509C27.9553 23.4531 28.463 23.1824 29.0156 23.073C29.5681 22.9636 30.1407 23.0204 30.6609 23.2361C31.1812 23.4519 31.6259 23.8171 31.9388 24.2854C32.2517 24.7538 32.4187 25.3043 32.4189 25.8676V25.8694C32.419 26.2438 32.3454 26.6145 32.2022 26.9604C32.059 27.3063 31.849 27.6206 31.5842 27.8854C31.3195 28.1501 31.0052 28.3601 30.6593 28.5033C30.3134 28.6465 29.9426 28.7202 29.5683 28.72L29.5611 28.7183Z" fill="#CCC48D"/>
</svg>
