<svg width="50" height="48" viewBox="0 0 50 48" fill="none" xmlns="http://www.w3.org/2000/svg">
<g clip-path="url(#clip0_703_208)">
<path d="M8.85417 3.86887e-06H41.1458C42.3089 -0.00107545 43.4607 0.223684 44.5355 0.66142C45.6102 1.09916 46.5867 1.74127 47.4091 2.55102C48.2315 3.36078 48.8837 4.32226 49.3283 5.38046C49.7728 6.43866 50.0011 7.57279 50 8.71795V39.2821C50.0011 40.4272 49.7728 41.5613 49.3283 42.6195C48.8837 43.6777 48.2315 44.6392 47.4091 45.449C46.5867 46.2587 45.6102 46.9009 44.5355 47.3386C43.4607 47.7763 42.3089 48.0011 41.1458 48H8.85417C7.69112 48.0011 6.53926 47.7763 5.46453 47.3386C4.3898 46.9009 3.41329 46.2587 2.59088 45.449C1.76848 44.6392 1.11633 43.6777 0.671755 42.6195C0.227179 41.5613 -0.00109226 40.4272 3.92932e-06 39.2821V8.71795C-0.00109226 7.57279 0.227179 6.43866 0.671755 5.38046C1.11633 4.32226 1.76848 3.36078 2.59088 2.55102C3.41329 1.74127 4.3898 1.09916 5.46453 0.66142C6.53926 0.223684 7.69112 -0.00107545 8.85417 3.86887e-06Z" fill="#CCC48D"/>
<path d="M18.1668 12.5538V33.6C18.1668 33.8256 18.0627 33.9282 17.8752 33.9282H13.7918C13.6043 33.9282 13.521 33.8256 13.521 33.6V12.5538C13.521 12.3692 13.6252 12.2871 13.8127 12.2871H17.8752C17.9067 12.2822 17.939 12.2837 17.97 12.2915C18.001 12.2993 18.03 12.3132 18.0554 12.3324C18.0807 12.3516 18.1018 12.3756 18.1174 12.4031C18.133 12.4306 18.1427 12.4609 18.146 12.4923C18.1539 12.5004 18.1598 12.5101 18.1634 12.5207C18.167 12.5314 18.1682 12.5427 18.1668 12.5538Z" fill="#283618"/>
<path d="M30.1667 34.2564C28.6224 34.2813 27.092 33.9659 25.6875 33.3333C24.3808 32.7316 23.2856 31.7604 22.5417 30.5435C21.7708 29.2923 21.3958 27.7333 21.3958 25.8666C21.3747 24.3486 21.7706 22.8531 22.5417 21.5384C23.3323 20.2022 24.4774 19.1031 25.8542 18.3589C27.3125 17.5589 29.0625 17.1692 31.125 17.1692C31.2711 17.1676 31.4172 17.1744 31.5625 17.1897C31.75 17.2102 31.9583 17.2102 32.2083 17.2307V10.7487C32.2083 10.6051 32.2708 10.523 32.4167 10.523H36.6458C36.6925 10.5168 36.7399 10.5281 36.7785 10.5547C36.8171 10.5813 36.8441 10.6213 36.8542 10.6666V30.2358C36.8542 30.6051 36.875 31.0153 36.8958 31.4666C36.9167 31.9179 36.9583 32.3076 36.9792 32.6564C36.9836 32.7256 36.9659 32.7945 36.9285 32.8534C36.8912 32.9123 36.836 32.9581 36.7708 32.9846C35.6796 33.4361 34.5406 33.7664 33.375 33.9692C32.3163 34.1581 31.2426 34.2542 30.1667 34.2564ZM32.2083 30.1538V21.1282C32.0228 21.0841 31.8351 21.0498 31.6458 21.0256C31.4167 21.0051 31.1875 20.9846 30.9583 20.9846C30.1417 20.9755 29.3346 21.1583 28.6042 21.5179C27.8922 21.8672 27.2827 22.3897 26.8333 23.0359C26.375 23.6923 26.1458 24.5743 26.1458 25.641C26.1277 26.3609 26.2478 27.0778 26.5 27.7538C26.7015 28.3005 27.0214 28.7975 27.4375 29.2102C27.8391 29.5876 28.324 29.8684 28.8542 30.0307C29.4122 30.2107 29.9961 30.3007 30.5833 30.2974C30.8958 30.2974 31.1875 30.2769 31.4583 30.2564C31.7129 30.2757 31.9687 30.2407 32.2083 30.1538Z" fill="#283618"/>
</g>
<defs>
<clipPath id="clip0_703_208">
<rect width="50" height="48" fill="white"/>
</clipPath>
</defs>
</svg>
