<svg width="49" height="48" viewBox="0 0 49 48" fill="none" xmlns="http://www.w3.org/2000/svg">
<g clip-path="url(#clip0_703_219)">
<path d="M8.67709 3.86887e-06H40.3229C41.4627 -0.00107545 42.5915 0.223684 43.6448 0.66142C44.698 1.09916 45.655 1.74127 46.4609 2.55102C47.2669 3.36078 47.906 4.32226 48.3417 5.38046C48.7774 6.43866 49.0011 7.57279 49 8.71795V39.2821C49.0011 40.4272 48.7774 41.5613 48.3417 42.6195C47.906 43.6777 47.2669 44.6392 46.4609 45.449C45.655 46.2587 44.698 46.9009 43.6448 47.3386C42.5915 47.7763 41.4627 48.0011 40.3229 48H8.67709C7.53729 48.0011 6.40848 47.7763 5.35524 47.3386C4.302 46.9009 3.34502 46.2587 2.53907 45.449C1.73311 44.6392 1.094 43.6777 0.65832 42.6195C0.222636 41.5613 -0.00107041 40.4272 3.85074e-06 39.2821V8.71795C-0.00107041 7.57279 0.222636 6.43866 0.65832 5.38046C1.094 4.32226 1.73311 3.36078 2.53907 2.55102C3.34502 1.74127 4.302 1.09916 5.35524 0.66142C6.40848 0.223684 7.53729 -0.00107545 8.67709 3.86887e-06Z" fill="#CCC48D"/>
<path d="M25.7248 33.9282H12.7806C12.556 33.9282 12.454 33.8051 12.454 33.559V12.5949C12.4494 12.5611 12.4516 12.5268 12.4605 12.4939C12.4694 12.461 12.4848 12.4303 12.5058 12.4035C12.5267 12.3767 12.5528 12.3544 12.5825 12.338C12.6122 12.3215 12.6448 12.3112 12.6785 12.3077H16.7619C16.7874 12.303 16.8136 12.3036 16.8389 12.3094C16.8643 12.3152 16.8881 12.3261 16.9091 12.3414C16.9301 12.3568 16.9478 12.3762 16.9611 12.3987C16.9744 12.4211 16.983 12.4459 16.9865 12.4718V29.7641H26.419C26.6231 29.7641 26.6844 29.8667 26.6435 30.0513L26.0515 33.6205C26.0483 33.6676 26.0358 33.7137 26.0148 33.7559C25.9937 33.7982 25.9646 33.8358 25.929 33.8667C25.8691 33.9083 25.7976 33.9298 25.7248 33.9282Z" fill="#283618"/>
<path d="M28.9914 17.5179H32.5643C32.661 17.5202 32.7546 17.5532 32.8316 17.6122C32.9086 17.6711 32.9651 17.753 32.993 17.8461C33.0774 17.9912 33.1329 18.1515 33.1564 18.3179C33.1972 18.523 33.238 18.7487 33.2584 18.9538C33.2789 19.1589 33.2993 19.4256 33.2993 19.6923C33.9123 18.9732 34.6531 18.375 35.4839 17.9281C36.4166 17.4201 37.4652 17.1656 38.5259 17.1897C38.5595 17.1851 38.5937 17.1874 38.6264 17.1963C38.6591 17.2052 38.6897 17.2207 38.7164 17.2417C38.743 17.2628 38.7652 17.289 38.7816 17.3188C38.798 17.3486 38.8082 17.3814 38.8118 17.4153V21.4974C38.8118 21.6615 38.7097 21.723 38.4851 21.723C37.1619 21.6434 35.839 21.8825 34.6264 22.4205C34.2128 22.5982 33.8382 22.8561 33.5239 23.1794V33.641C33.5239 33.8461 33.4422 33.9281 33.2584 33.9281H29.2772C29.2395 33.9345 29.201 33.9331 29.1639 33.9241C29.1267 33.915 29.0919 33.8985 29.0613 33.8755C29.0307 33.8524 29.0052 33.8234 28.9861 33.7902C28.9671 33.7569 28.955 33.7201 28.9505 33.682V22.2358C28.9505 21.7435 28.9505 21.2307 28.9301 20.6974C28.9097 20.164 28.9097 19.6307 28.8893 19.0974C28.8689 18.6461 28.828 18.1948 28.7668 17.7435C28.7614 17.7193 28.7608 17.6942 28.765 17.6697C28.7693 17.6452 28.7783 17.6218 28.7916 17.6009C28.8049 17.5799 28.8221 17.5618 28.8424 17.5476C28.8627 17.5333 28.8855 17.5232 28.9097 17.5179C28.9301 17.4974 28.9505 17.4974 28.9914 17.5179Z" fill="#283618"/>
</g>
<defs>
<clipPath id="clip0_703_219">
<rect width="49" height="48" fill="white"/>
</clipPath>
</defs>
</svg>
