<svg width="50" height="48" viewBox="0 0 50 48" fill="none" xmlns="http://www.w3.org/2000/svg">
<g clip-path="url(#clip0_703_231)">
<path d="M8.85417 3.86887e-06H41.1458C42.3089 -0.00107545 43.4607 0.223684 44.5355 0.66142C45.6102 1.09916 46.5867 1.74127 47.4091 2.55102C48.2315 3.36078 48.8837 4.32226 49.3283 5.38046C49.7728 6.43866 50.0011 7.57279 50 8.71795V39.2821C50.0011 40.4272 49.7728 41.5613 49.3283 42.6195C48.8837 43.6777 48.2315 44.6392 47.4091 45.449C46.5867 46.2587 45.6102 46.9009 44.5355 47.3386C43.4607 47.7763 42.3089 48.0011 41.1458 48H8.85417C7.69112 48.0011 6.53926 47.7763 5.46453 47.3386C4.3898 46.9009 3.41329 46.2587 2.59088 45.449C1.76848 44.6392 1.11633 43.6777 0.671755 42.6195C0.227179 41.5613 -0.00109226 40.4272 3.92932e-06 39.2821V8.71795C-0.00109226 7.57279 0.227179 6.43866 0.671755 5.38046C1.11633 4.32226 1.76848 3.36078 2.59088 2.55102C3.41329 1.74127 4.3898 1.09916 5.46453 0.66142C6.53926 0.223684 7.69112 -0.00107545 8.85417 3.86887e-06Z" fill="#CCC48D"/>
<path d="M11.25 33.6615V12.5538C11.25 12.4102 11.3125 12.3282 11.4583 12.3282C11.8125 12.3282 12.1458 12.3282 12.625 12.3076C13.1042 12.2871 13.6458 12.2871 14.2083 12.2666C14.7708 12.2461 15.375 12.2461 16.0208 12.2256C16.6667 12.2051 17.2917 12.2051 17.9167 12.2051C19.625 12.2051 21.0417 12.4102 22.2083 12.841C23.2542 13.1907 24.2078 13.7653 25 14.523C25.6713 15.1862 26.19 15.9837 26.5208 16.8615C26.8362 17.7163 26.9983 18.6187 27 19.5282C27 21.2923 26.5833 22.7487 25.75 23.8974C24.9128 25.0445 23.7439 25.9166 22.3958 26.3999C20.9792 26.9128 19.4167 27.0974 17.7083 27.0974C17.2083 27.0974 16.875 27.0974 16.6667 27.0769C16.4583 27.0564 16.1667 27.0564 15.7708 27.0564V33.641C15.7755 33.6747 15.7732 33.7091 15.7641 33.7419C15.755 33.7748 15.7394 33.8055 15.718 33.8323C15.6966 33.8591 15.67 33.8814 15.6397 33.8979C15.6094 33.9143 15.5761 33.9246 15.5417 33.9282H11.5C11.3333 33.9282 11.25 33.8461 11.25 33.6615ZM15.7917 16.2871V23.1794C16.0833 23.2 16.3542 23.2205 16.6042 23.2205H17.7083C18.5216 23.2214 19.3301 23.0968 20.1042 22.8512C20.7683 22.6589 21.3617 22.2813 21.8125 21.7641C22.25 21.2512 22.4583 20.5538 22.4583 19.6512C22.4779 19.0102 22.3117 18.377 21.9792 17.8256C21.6318 17.293 21.1209 16.8834 20.5208 16.6564C19.7387 16.3548 18.9019 16.2151 18.0625 16.2461C17.5208 16.2461 17.0417 16.2461 16.6458 16.2666C16.3611 16.2483 16.0752 16.2552 15.7917 16.2871Z" fill="#283618"/>
<path d="M40 21.9281C39.371 21.6019 38.6973 21.367 38 21.2307C37.2341 21.0599 36.4519 20.9705 35.6667 20.964C35.245 20.9497 34.8236 20.9981 34.4167 21.1076C34.1572 21.1608 33.927 21.307 33.7708 21.5179C33.6656 21.6843 33.608 21.8757 33.6042 22.0717C33.6139 22.2669 33.6869 22.4538 33.8125 22.6051C34.01 22.8331 34.2505 23.0212 34.5208 23.1589C35 23.4051 35.5 23.6307 36 23.8358C37.1256 24.2089 38.2025 24.7115 39.2083 25.3333C39.8925 25.7568 40.4583 26.3421 40.8542 27.0358C41.189 27.6902 41.3536 28.4162 41.3333 29.1486C41.3502 30.1182 41.0668 31.0698 40.5208 31.8769C39.9397 32.6957 39.1289 33.3301 38.1875 33.7025C37.1667 34.1333 35.9167 34.3589 34.4167 34.3589C33.4656 34.3627 32.5165 34.2734 31.5833 34.0922C30.8486 33.9672 30.134 33.7465 29.4583 33.4358C29.3857 33.3999 29.3253 33.3439 29.2846 33.2747C29.2439 33.2054 29.2246 33.126 29.2292 33.0461V29.4769C29.2274 29.4418 29.234 29.4068 29.2485 29.3747C29.2629 29.3427 29.2849 29.3144 29.3125 29.2922C29.3419 29.2754 29.3759 29.2683 29.4097 29.272C29.4435 29.2757 29.4751 29.29 29.5 29.3127C30.3025 29.7786 31.1742 30.1177 32.0833 30.3179C32.886 30.5235 33.7122 30.6269 34.5417 30.6256C35.3333 30.6256 35.8958 30.523 36.2708 30.3384C36.4381 30.2623 36.5799 30.1409 36.6795 29.9883C36.7791 29.8357 36.8325 29.6583 36.8333 29.4769C36.8333 29.1897 36.6667 28.923 36.3333 28.6563C36 28.3897 35.3125 28.082 34.2917 27.6922C33.2444 27.3289 32.2499 26.8324 31.3333 26.2153C30.6805 25.7572 30.1396 25.1616 29.75 24.4717C29.4175 23.8239 29.2529 23.1051 29.2708 22.3794C29.2739 21.5041 29.5188 20.6461 29.9792 19.8974C30.5084 19.0739 31.268 18.4186 32.1667 18.0102C33.1458 17.5179 34.375 17.2922 35.8542 17.2922C36.7187 17.2925 37.582 17.3542 38.4375 17.4769C39.0526 17.5588 39.6546 17.7173 40.2292 17.9486C40.3207 17.9806 40.3956 18.047 40.4375 18.1333C40.4615 18.2133 40.4755 18.296 40.4792 18.3794V21.723C40.4795 21.7629 40.4702 21.8022 40.4521 21.8379C40.434 21.8736 40.4076 21.9045 40.375 21.9281C40.2538 21.971 40.1212 21.971 40 21.9281Z" fill="#283618"/>
</g>
<defs>
<clipPath id="clip0_703_231">
<rect width="50" height="48" fill="white"/>
</clipPath>
</defs>
</svg>
