<svg width="50" height="49" viewBox="0 0 50 49" fill="none" xmlns="http://www.w3.org/2000/svg">
<g clip-path="url(#clip0_703_243)">
<path d="M8.85417 3.94948e-06H41.1458C42.3089 -0.00109786 43.4607 0.228344 44.5355 0.6752C45.6102 1.12205 46.5867 1.77755 47.4091 2.60417C48.2315 3.43079 48.8837 4.41231 49.3283 5.49255C49.7728 6.5728 50.0011 7.73056 50 8.89958V40.1004C50.0011 41.2695 49.7728 42.4272 49.3283 43.5075C48.8837 44.5877 48.2315 45.5692 47.4091 46.3958C46.5867 47.2225 45.6102 47.878 44.5355 48.3248C43.4607 48.7717 42.3089 49.0011 41.1458 49H8.85417C7.69112 49.0011 6.53926 48.7717 5.46453 48.3248C4.3898 47.878 3.41329 47.2225 2.59088 46.3958C1.76848 45.5692 1.11633 44.5877 0.671755 43.5075C0.227179 42.4272 -0.00109226 41.2695 3.92932e-06 40.1004V8.89958C-0.00109226 7.73056 0.227179 6.5728 0.671755 5.49255C1.11633 4.41231 1.76848 3.43079 2.59088 2.60417C3.41329 1.77755 4.3898 1.12205 5.46453 0.6752C6.53926 0.228344 7.69112 -0.00109786 8.85417 3.94948e-06Z" fill="#CCC48D"/>
<path d="M11.875 34.3628V12.8153C11.875 12.6688 11.9375 12.585 12.0833 12.585C12.4375 12.585 12.7708 12.585 13.25 12.5641C13.7292 12.5431 14.2708 12.5431 14.8333 12.5222C15.3958 12.5012 16 12.5012 16.6458 12.4803C17.2917 12.4594 17.9167 12.4594 18.5417 12.4594C20.25 12.4594 21.6667 12.6688 22.8333 13.1085C23.8792 13.4655 24.8328 14.052 25.625 14.8256C26.2963 15.5025 26.815 16.3167 27.1458 17.2128C27.4612 18.0854 27.6233 19.0065 27.625 19.935C27.625 21.7358 27.2083 23.2226 26.375 24.3952C25.5378 25.5663 24.3689 26.4566 23.0208 26.9499C21.6042 27.4735 20.0417 27.6619 18.3333 27.6619C17.8333 27.6619 17.5 27.6619 17.2917 27.641C17.0833 27.62 16.7917 27.62 16.3958 27.62V34.3418C16.4005 34.3763 16.3982 34.4113 16.3891 34.4449C16.38 34.4784 16.3644 34.5098 16.343 34.5372C16.3216 34.5645 16.295 34.5872 16.2647 34.6041C16.2344 34.6209 16.2011 34.6314 16.1667 34.635H12.125C11.9583 34.635 11.875 34.5512 11.875 34.3628ZM16.4167 16.6264V23.6623C16.7083 23.6833 16.9792 23.7042 17.2292 23.7042H18.3333C19.1466 23.7052 19.9551 23.578 20.7292 23.3273C21.3933 23.131 21.9867 22.7455 22.4375 22.2175C22.875 21.694 23.0833 20.982 23.0833 20.0606C23.1029 19.4063 22.9367 18.7598 22.6042 18.197C22.2568 17.6533 21.7459 17.2351 21.1458 17.0034C20.3637 16.6955 19.5269 16.5529 18.6875 16.5846C18.1458 16.5846 17.6667 16.5846 17.2708 16.6055C16.9861 16.5868 16.7002 16.5938 16.4167 16.6264Z" fill="#283618"/>
<path d="M30.5416 17.841H34.1874C34.2862 17.8434 34.3816 17.8771 34.4602 17.9373C34.5388 17.9974 34.5964 18.081 34.6249 18.176C34.6885 18.3445 34.7305 18.5204 34.7499 18.6996C34.7916 18.909 34.8333 19.1393 34.8541 19.3487C34.8749 19.5581 34.8958 19.8303 34.8958 20.1025C35.5213 19.3685 36.2772 18.7579 37.1249 18.3017C38.0933 17.761 39.1838 17.4798 40.2916 17.485C40.3259 17.4803 40.3607 17.4826 40.3941 17.4918C40.4275 17.5009 40.4587 17.5167 40.4859 17.5382C40.5131 17.5596 40.5358 17.5864 40.5525 17.6168C40.5692 17.6473 40.5797 17.6808 40.5833 17.7154V21.8825C40.5833 22.05 40.4791 22.1128 40.2499 22.1128C39.4942 22.0879 38.7383 22.1583 37.9999 22.3222C37.3981 22.4471 36.8114 22.6366 36.2499 22.8876C35.8469 23.0703 35.4853 23.3339 35.1874 23.6624V34.3419C35.1874 34.5513 35.1041 34.635 34.9166 34.635H30.8124C30.774 34.6415 30.7347 34.6401 30.6968 34.6309C30.6589 34.6216 30.6233 34.6048 30.5921 34.5813C30.561 34.5577 30.5349 34.5281 30.5154 34.4942C30.496 34.4602 30.4836 34.4226 30.4791 34.3837V22.6991C30.4791 22.1966 30.4791 21.6731 30.4583 21.1286C30.4374 20.5842 30.4374 20.0397 30.4166 19.4953C30.4166 19.0137 30.3749 18.553 30.3333 18.0713C30.3277 18.0466 30.3271 18.021 30.3315 17.996C30.3358 17.971 30.345 17.9471 30.3586 17.9257C30.3721 17.9043 30.3897 17.8858 30.4104 17.8713C30.4311 17.8567 30.4544 17.8465 30.4791 17.841C30.4791 17.8201 30.5208 17.8201 30.5416 17.841Z" fill="#283618"/>
</g>
<defs>
<clipPath id="clip0_703_243">
<rect width="50" height="49" fill="white"/>
</clipPath>
</defs>
</svg>
