<svg width="50" height="48" viewBox="0 0 50 48" fill="none" xmlns="http://www.w3.org/2000/svg">
<path d="M8.85417 3.86887e-06H41.1458C42.3089 -0.00107545 43.4607 0.223684 44.5355 0.66142C45.6102 1.09916 46.5867 1.74127 47.4091 2.55102C48.2315 3.36078 48.8837 4.32226 49.3283 5.38046C49.7728 6.43866 50.0011 7.57279 50 8.71795V39.2821C50.0011 40.4272 49.7728 41.5613 49.3283 42.6195C48.8837 43.6777 48.2315 44.6392 47.4091 45.449C46.5867 46.2587 45.6102 46.9008 44.5355 47.3386C43.4607 47.7763 42.3089 48.0011 41.1458 48H8.85417C7.69112 48.0011 6.53926 47.7763 5.46453 47.3386C4.3898 46.9008 3.41329 46.2587 2.59088 45.449C1.76848 44.6392 1.11633 43.6777 0.671755 42.6195C0.227179 41.5613 -0.00109226 40.4272 3.92932e-06 39.2821V8.71795C-0.00109226 7.57279 0.227179 6.43866 0.671755 5.38046C1.11633 4.32226 1.76848 3.36078 2.59088 2.55102C3.41329 1.74127 4.3898 1.09916 5.46453 0.66142C6.53926 0.223684 7.69112 -0.00107545 8.85417 3.86887e-06Z" fill="#CCC48D"/>
<path fill-rule="evenodd" clip-rule="evenodd" d="M18.063 29.0885C17.4091 29.496 16.4238 30.1562 15.6617 30.8743C14.4104 32.0518 14.1485 33.6853 14.8086 34.0669C15.4192 34.4196 16.8447 33.9999 17.865 32.891C18.9357 31.7267 19.3772 30.2508 18.9212 28.5753C18.8676 28.6071 18.815 28.6391 18.7634 28.6688L18.7645 28.671L18.6954 28.7101C18.4292 28.8685 18.2116 28.9991 18.063 29.0885ZM36.4386 28.5599C36.0682 29.362 36.0496 29.6202 36.1621 29.7005C36.6996 29.5081 37.5887 29.0444 37.5958 27.8018C37.5969 27.6157 37.5557 27.416 37.4896 27.2073C36.915 27.7143 36.5838 28.2452 36.4386 28.5599ZM42.2056 26.1346C40.7698 25.9678 39.6495 26.1685 38.78 26.5295C38.941 26.9471 39.0647 27.3821 39.0822 27.8203C39.1225 28.782 38.4582 29.4938 37.7659 30.0019C37.3616 30.2982 36.9315 30.4956 36.5703 30.6149C36.2816 30.7362 35.8979 30.8617 35.6255 30.8063C35.025 30.6847 34.7054 30.1531 35.1139 28.9806C35.3345 28.3461 35.971 27.3801 36.9984 26.5481C36.7643 26.0677 36.5033 25.5782 36.3702 25.1285C36.1081 24.242 36.0289 23.7061 36.0289 23.7061C36.0289 23.7061 35.1821 25.4557 34.0896 27.0468C34.0266 27.1393 33.9637 27.23 33.9007 27.3204C34.1153 27.8173 34.2843 28.3428 34.3073 28.8727C34.3475 29.8343 33.9297 30.5615 33.2364 31.0685C32.8611 31.3443 32.4607 31.5347 32.1172 31.656C31.8975 31.7515 31.4507 31.9088 30.8154 31.9511C30.4679 31.9748 30.1337 31.9533 29.947 31.8123C29.6901 31.619 29.6592 31.3803 29.7922 31.0542C29.9047 30.7774 30.7464 29.82 31.452 28.9817C31.6469 28.7502 31.8325 28.5137 31.9986 28.2946L31.9945 28.2852C31.9945 28.2852 32.1224 28.1209 32.3298 27.8339C32.0719 27.2805 31.7449 26.7044 31.5912 26.1819C31.3291 25.2954 31.2498 24.7594 31.2498 24.7594C31.2498 24.7594 30.3914 26.9524 29.4972 28.703C28.8052 30.0588 28.3429 30.8804 28.1347 31.2404L28.1326 31.2549C28.1326 31.2549 28.1015 31.3074 28.0479 31.3897L28.0078 31.4564L28.0067 31.4502C27.7745 31.7919 27.2537 32.4613 26.7359 32.4613C25.3144 32.4613 25.8363 29.5844 25.8363 29.5844C25.8363 29.5844 25.4207 30.65 24.9523 31.5644C24.5708 32.3101 24.2232 32.9418 23.463 32.9418C23.2443 32.9418 22.8977 32.9355 22.6098 32.6628C21.9569 32.0447 21.4577 30.475 21.5555 29.2593C21.6391 28.2257 21.799 27.5097 22.0176 26.9123C21.6277 27.1241 21.177 27.3752 20.718 27.6437L20.0123 28.0581L20.0351 28.0993C20.6188 29.2246 20.7746 31.69 19.5017 33.5826C18.2289 35.4761 15.8595 36.6281 13.551 35.9884C12.8061 35.7816 11.6808 34.246 12.6514 32.1055C13.5076 30.218 16.9291 28.4335 17.8308 27.9881L18.0783 27.8524C16.2805 26.2848 11.7912 24.1701 11.1621 20.9219C10.9846 20.0075 11.4148 17.8208 14.109 15.307C16.3752 13.1933 19.5276 11.5743 22.4396 10.5426C27.332 8.80957 32.5011 9.83187 33.2963 12.9402C34.0782 15.9972 31.417 19.6538 28.0088 20.9683C24.9658 22.1418 22.4499 21.9557 21.4163 21.6174C20.2414 21.2327 19.5523 20.4601 19.3843 20.024C19.3182 19.8533 19.2046 19.5665 19.3843 19.4677C19.4945 19.407 19.5388 19.4214 19.8339 19.7464C20.1145 20.055 21.2429 20.8831 23.3865 20.6433C29.0115 20.0149 32.3998 15.6568 31.3291 13.3116C30.5793 11.67 26.2438 10.9294 20.8272 13.6212C14.2152 16.9064 13.8563 19.6147 13.7996 20.6433C13.6448 23.4728 17.3015 24.9612 19.2801 27.0655L19.3563 27.1489C19.7266 26.9452 20.1176 26.7303 20.5013 26.5205C21.4989 25.9742 22.4396 25.4619 22.878 25.2232C23.5743 24.2145 24.9873 23.1014 26.0076 23.1014C27.6384 23.1014 27.0783 25.4374 27.0783 25.4374C27.0783 25.4374 27.1113 25.3304 27.1556 25.3295C27.202 25.3282 27.3816 25.0217 27.8851 25.2047C28.4028 25.3941 28.2851 25.7562 28.2884 25.7932C28.2946 25.8651 27.6767 27.9418 27.4199 29.2738C27.297 29.9094 27.3681 30.3724 27.4044 30.3724C27.4549 30.3724 27.5581 30.2109 27.654 30.0371L27.6519 30.0319C27.6519 30.0319 27.724 29.9003 27.8448 29.6638L27.8686 29.6143L27.8696 29.6165C28.012 29.3388 28.212 28.9304 28.4431 28.4244C28.8959 27.4298 30.6236 23.5901 30.7701 23.1653C30.9165 22.7406 30.9929 22.3014 31.0652 22.113C31.1363 21.9248 31.747 21.7829 32.4607 21.7881C33.1745 21.7933 33.247 22.0966 33.2519 22.1594C33.2571 22.2221 32.9125 23.0646 32.8331 23.66C32.7548 24.2556 32.8301 24.5527 32.8951 25.0527C32.9374 25.3796 33.1426 25.7943 33.3852 26.2643C34.1237 25.0608 35.4233 22.7589 35.5481 22.114C35.6336 21.6729 35.7709 21.2501 35.8432 21.0617C35.9153 20.8735 36.5251 20.7317 37.2387 20.7368C37.9525 20.7419 38.0247 21.0453 38.0299 21.1081C38.0351 21.1709 37.6894 22.0133 37.6111 22.6089C37.5326 23.2033 37.6082 23.5017 37.673 24.0015C37.7288 24.4294 38.0608 25.0044 38.39 25.6584C39.2883 25.2171 40.3457 24.921 41.5836 24.9148C42.0962 24.9119 42.6915 24.9632 42.9989 25.0587V15.2184C42.9989 14.5242 42.6418 13.8845 42.0385 13.5379L25.9304 4.26002C25.3281 3.91333 24.5905 3.91333 23.9881 4.26002L7.92433 13.5334C7.32189 13.8801 7 14.521 7 15.2141V33.7779C7 34.471 7.32386 35.1119 7.92531 35.4584L24.0149 44.7391C24.6172 45.087 25.3476 45.087 25.9499 44.7391L42.0468 35.4584C42.6491 35.1107 43 34.4709 43 33.7779V26.2755C42.7957 26.2156 42.4966 26.1683 42.2056 26.1346ZM24.8761 25.1624C24.5306 25.5481 23.9417 26.5426 23.6662 27.375C23.1184 29.0278 23.3557 30.7075 23.7435 30.8084C24.1963 30.9265 24.9391 28.7173 25.2947 27.8532C25.5176 27.3121 26.3842 24.9106 26.1943 24.5897C26.0461 24.3387 25.4321 24.5413 24.8761 25.1624ZM31.1428 30.7331C31.1428 30.7331 31.0335 30.8361 31.0808 30.8649C31.1447 30.903 31.283 30.8535 31.4336 30.7753C31.8597 30.5081 32.8158 29.8415 32.8179 28.855C32.8179 28.8263 32.8168 28.7986 32.8148 28.7687C32.593 29.0588 32.3887 29.3169 32.2124 29.536C31.9112 29.9093 31.1428 30.7331 31.1428 30.7331Z" fill="#283618"/>
</svg>
