<svg width="90" height="90" viewBox="0 0 90 90" fill="none" xmlns="http://www.w3.org/2000/svg">
<path fill-rule="evenodd" clip-rule="evenodd" d="M44.1521 41.7668C38.1437 23.6507 19.1208 12.9001 0.256725 17.5123C4.84754 36.2889 23.0146 48.1822 41.7668 45.3056C23.6506 51.3138 12.9001 70.3369 17.5123 89.2011C36.2889 84.6103 48.1822 66.4433 45.3056 47.691C51.3138 65.8071 70.3369 76.5577 89.2011 71.9454C84.6103 53.169 66.4432 41.2755 47.691 44.1521C65.8071 38.1438 76.5576 19.1208 71.9454 0.256743C53.169 4.84752 41.2755 23.0146 44.1521 41.7668ZM44.7281 44.7298L44.7298 44.7298L44.7297 44.7277C44.729 44.7279 44.7277 44.7282 44.7277 44.7282L44.7281 44.7298Z" fill="#CCC48D"/>
</svg>
