<svg width="61" height="67" viewBox="0 0 61 67" fill="none" xmlns="http://www.w3.org/2000/svg">
<path d="M60.1049 58.1068C60.1109 59.2767 59.8683 60.4344 59.3931 61.5034C58.9178 62.5724 58.2208 63.5281 57.3482 64.3073C56.4756 65.0865 55.4474 65.6713 54.3316 66.023C53.2159 66.3747 52.0382 66.4853 50.8765 66.3474C46.6476 65.7216 43.5488 62.0418 43.6519 57.7682V8.63497C43.5497 4.35685 46.6563 0.674956 50.8905 0.0559948C52.0511 -0.0798802 53.2274 0.0322063 54.3414 0.384841C55.4555 0.737475 56.482 1.32262 57.353 2.10158C58.224 2.88053 58.9197 3.83554 59.3941 4.90344C59.8685 5.97134 60.1108 7.12779 60.1049 8.29631V58.1068Z" fill="#F9AB00"/>
<path d="M8.33293 49.965C12.8764 49.965 16.5594 53.6483 16.5594 58.1915C16.5594 62.7349 12.8764 66.418 8.33293 66.418C3.78951 66.418 0.106445 62.7349 0.106445 58.1917C0.106445 53.6483 3.78951 49.965 8.33293 49.965V49.965ZM29.9785 25.0315C25.4138 25.2818 21.8718 29.1109 21.978 33.6815V55.7787C21.978 61.7757 24.6167 65.4163 28.4828 66.1923C29.6814 66.4353 30.9191 66.4084 32.106 66.1136C33.2929 65.8189 34.3994 65.2636 35.3451 64.4881C36.2908 63.7127 37.052 62.7364 37.5735 61.6302C38.0951 60.524 38.3639 59.3156 38.3604 58.0926V33.3007C38.3624 32.2047 38.1461 31.1192 37.7242 30.1077C37.3023 29.0962 36.6831 28.1788 35.9029 27.4091C35.1227 26.6394 34.197 26.0327 33.1798 25.6246C32.1627 25.2164 31.0744 25.0149 29.9785 25.0317V25.0315Z" fill="#E37400"/>
</svg>
